<svg xmlns="http://www.w3.org/2000/svg" xmlns:xlink="http://www.w3.org/1999/xlink" width="52" height="52" viewBox="0 0 52 52"><defs><path id="zkgia" d="M968 2102c0-14.36 11.64-26 26-26s26 11.64 26 26-11.64 26-26 26-26-11.64-26-26z"/><path id="zkgib" d="M986 2100c0-5.468 4.455-9.9 9.95-9.9 5.495 0 9.95 4.432 9.95 9.9s-4.455 9.9-9.95 9.9c-5.495 0-9.95-4.432-9.95-9.9z"/><path id="zkgic" d="M1005.964 2099.826c0 4.536-3.105 8.36-7.302 9.458a4.08 4.08 0 0 0-1.237-1.393l-.002-.002h-.001c-.381-.269-.75-.554-1.109-.853 3.92-.067 7.089-3.274 7.089-7.21 0-3.978-3.236-7.214-7.214-7.214a7.207 7.207 0 0 0-5.835 2.98c-.028-.33-.048-.66-.056-.991v-.004a4.076 4.076 0 0 0-.623-2.054 9.736 9.736 0 0 1 6.514-2.493c5.39 0 9.776 4.385 9.776 9.776zm-9.55 11.939c-.646 1.213-1.981 1.895-3.487 1.895-1.427 0-3.007-.613-4.297-1.967a25.47 25.47 0 0 1-6.367-11.875c-.817-3.598 1.392-6.539 3.93-6.539.105 0 .211.005.318.015.682.038 1.158.659 1.224 1.374.13 1.396.243 2.152.451 3.674.096.7-.211 1.398-.865 1.598l-.89.26a21.532 21.532 0 0 0 4.188 7.81l.71-.598c.228-.188.507-.278.788-.278.369 0 .727.17 1.02.441a44.652 44.652 0 0 0 2.811 2.41c.562.448.813 1.19.467 1.78zm-2.223-12.732c.142-.213.213-.423.213-.625 0-.216-.052-.375-.16-.483-.109-.108-.26-.161-.462-.161-.199 0-.35.056-.462.17a.6.6 0 0 0-.13.227.757.757 0 0 1-.791.506.743.743 0 0 1-.615-1.007c.124-.318.308-.572.546-.755.396-.303.895-.457 1.481-.457.646 0 1.164.18 1.54.536.379.358.571.81.571 1.341 0 .296-.054.583-.16.851-.104.264-.27.542-.494.827-.148.19-.405.452-.787.803-.363.334-.596.557-.69.665a2.672 2.672 0 0 0-.037.042h1.453a.717.717 0 0 1 0 1.433h-3.218a.462.462 0 0 1-.45-.575c.073-.296.193-.584.357-.857.233-.387.674-.88 1.348-1.507.644-.601.871-.862.947-.974zm5.978-2.121v3.425h.074a.688.688 0 0 1 0 1.375h-.074v.494a.74.74 0 0 1-1.48 0v-.494h-2.045a.465.465 0 0 1-.464-.464v-.591c0-.13.038-.254.111-.36l2.491-3.647a.464.464 0 0 1 .384-.202h.538c.256 0 .465.208.465.464zm-1.48 2.06l-.917 1.375h.918z"/></defs><g><g transform="translate(-968 -2076)"><g opacity=".2"><use fill="#5d67e1" xlink:href="#zkgia"/></g><g><use fill="#fff" xlink:href="#zkgib"/></g><g><use fill="#5d67e1" xlink:href="#zkgic"/></g></g></g></svg>