<svg xmlns="http://www.w3.org/2000/svg" xmlns:xlink="http://www.w3.org/1999/xlink" width="52" height="52" viewBox="0 0 52 52"><defs><path id="f0tba" d="M584 2102c0-14.36 11.64-26 26-26s26 11.64 26 26-11.64 26-26 26-26-11.64-26-26z"/><path id="f0tbb" d="M621.687 2110.083a.636.636 0 0 0-.19-.404l-9.552-9.553a7.237 7.237 0 0 0 .574-2.835 7.219 7.219 0 0 0-2.122-5.129 7.208 7.208 0 0 0-5.127-2.122 7.207 7.207 0 0 0-5.128 2.123c-2.829 2.828-2.83 7.427 0 10.255a7.2 7.2 0 0 0 5.127 2.127c.99 0 1.947-.2 2.835-.577l3.138 3.14c.13.13.303.198.488.192l1.71-.06-.055 1.715a.65.65 0 0 0 .19.485.644.644 0 0 0 .485.191l1.716-.058-.061 1.712a.668.668 0 0 0 .19.487c.13.128.283.197.489.191l1.712-.058-.058 1.713a.652.652 0 0 0 .725.674l2.625-.291a.658.658 0 0 0 .583-.711z"/><path id="f0tbc" d="M604.39 2096.419a2.06 2.06 0 0 1-2.916 0 2.06 2.06 0 1 1 2.915 0zm15.052 13.896a.495.495 0 0 1-.698 0l-8.128-8.14c.226-.244.432-.501.619-.771l8.207 8.214a.494.494 0 0 1 0 .697z"/></defs><g><g transform="translate(-584 -2076)"><g opacity=".2"><use fill="#5d67e1" xlink:href="#f0tba"/></g><g><use fill="#5d67e1" xlink:href="#f0tbb"/></g><g><use fill="#fff" xlink:href="#f0tbc"/></g></g></g></svg>