<svg xmlns="http://www.w3.org/2000/svg" xmlns:xlink="http://www.w3.org/1999/xlink" width="52" height="52" viewBox="0 0 52 52"><defs><path id="dpcba" d="M202 2102c0-14.36 11.64-26 26-26s26 11.64 26 26-11.64 26-26 26-26-11.64-26-26z"/><path id="dpcbb" d="M238.941 2095.879h-5.294v-3.834c0-.577-.474-1.045-1.059-1.045h-15.53c-.584 0-1.058.468-1.058 1.045v12.29c0 .578.474 1.046 1.059 1.046h1.482v2.695c0 .39.22.747.57.927a1.068 1.068 0 0 0 1.096-.07l2.146-1.484v1.765c0 .578.474 1.046 1.059 1.046h7.242l5.139 3.551a1.068 1.068 0 0 0 1.096.07c.35-.18.57-.537.57-.926v-2.695h1.482c.585 0 1.059-.469 1.059-1.046v-12.29c0-.577-.474-1.045-1.059-1.045z"/><path id="dpcbc" d="M220.463 2106v-1.736c0-.578-.46-1.047-1.026-1.047H218V2093h13V2103.217h-6.318c-.21 0-.416.066-.588.19zm7.499-11h-6.924c-.573 0-1.038.448-1.038 1s.465 1 1.038 1h6.924c.573 0 1.038-.448 1.038-1s-.465-1-1.038-1zm0 5h-6.924c-.573 0-1.038.448-1.038 1s.465 1 1.038 1h6.924c.573 0 1.038-.448 1.038-1s-.465-1-1.038-1z"/></defs><g><g transform="translate(-202 -2076)"><g opacity=".2"><use fill="#5d67e1" xlink:href="#dpcba"/></g><g><use fill="#5d67e1" xlink:href="#dpcbb"/></g><g><use fill="#fff" xlink:href="#dpcbc"/></g></g></g></svg>