<svg xmlns="http://www.w3.org/2000/svg" xmlns:xlink="http://www.w3.org/1999/xlink" width="163" height="67" viewBox="0 0 163 67"><defs><path id="ed3pa" d="M163.538 3611c3.816.005 7.056 4.438 10.65 7.144 5.636 4.244 19.48.182 20.3 6.683.355 2.814.303 5.665.454 8.498l.26 2.072c.454 2.556 1.559 5.078 1.363 7.668-.184 2.43-6.284 3.94-6.969 4.093-6.238 1.39-15.173 1.93-21.21 1.088-1.49-.207-9.92-.845-11.513-4.818-2.078-5.177 6.356-5.667 6.457-9.533.155-6.004-12.09-12.054-5.252-19.792 1.98-2.241 3.77-3.101 5.448-3.103h.012z"/><path id="ed3pb" d="M162.15 3652.664c0-.44.349-.797.777-.797h21.814c.43 0 .778.354.778.797v1.596c0 .44-.174 1.107-.389 1.488l-10.516 18.674c-.43.765-1.13.764-1.56 0l-10.515-18.674c-.215-.382-.389-1.044-.389-1.488zm2.186 3.3a1.78 1.78 0 0 1-.033-.104l.08.287a4.792 4.792 0 0 1-.047-.183zm.297.615l5.984 8.99c.243.366.787.66 1.217.66l3.998.003c.432 0 .975-.294 1.218-.658l5.986-8.995c.104-.156.226-.411.297-.616.314-1.326-.275-1.644-1.372-.685l-.523.458a.905.905 0 0 1-1.176-.012l-2.34-2.13a.885.885 0 0 0-1.165 0l-2.34 2.13a.885.885 0 0 1-1.165 0l-2.34-2.13a.885.885 0 0 0-1.166 0l-2.34 2.13a.907.907 0 0 1-1.175.012l-.524-.458c-1.098-.961-1.687-.644-1.371.686.071.203.193.46.297.615zm18.7-.616c-.014.06-.03.12-.048.184l.08-.288c-.008.033-.02.068-.032.104zm-13.393-18.593v-13.033c0-.882.58-1.993 1.295-2.482l10.389-7.095v11.438l-6.495 4.436c-.715.488-1.295 1.6-1.295 2.484v1.592zm5.063-3.457c0-.882.58-1.993 1.294-2.481l9.222-6.298v24.737c0 .441-.35.8-.782.8h-9.734zm-12.853 11.968c0-.881.58-1.99 1.295-2.48l10.39-7.095v14.364h-10.91a.787.787 0 0 1-.775-.795z"/><path id="ed3pc" d="M309.084 3640.936h-4.156v-2.444h11.317v2.444h-4.156v10.517h-3.005zm-5.084 8.11v2.407h-10.064v-12.96h9.822v2.406h-6.832v2.814h6.034v2.333h-6.035v3zm-19.07-2.685l-1.745 1.815v3.277h-2.99v-12.96h2.99v6.054l5.756-6.055h3.343l-5.385 5.777 5.7 7.184h-3.51zm-11.334.037l-2.066-4.962-2.066 4.962zm.937 2.278h-6.035l-1.151 2.777h-3.082l5.793-12.96h2.97l5.812 12.96h-3.156zm-14.465 2.777l-.018-7.777-3.825 6.407h-1.356l-3.806-6.24v7.61h-2.823v-12.96h2.489l4.864 8.053 4.79-8.054h2.47l.038 12.96zm-19.403.222c-1.028 0-2.021-.139-2.98-.417-.96-.277-1.73-.638-2.312-1.083l1.021-2.259c.557.408 1.22.735 1.987.982.767.247 1.535.37 2.302.37.854 0 1.486-.127 1.894-.38.409-.253.613-.589.613-1.009a.963.963 0 0 0-.362-.768 2.748 2.748 0 0 0-.928-.49c-.378-.124-.889-.26-1.532-.408-.99-.235-1.801-.47-2.433-.704a3.952 3.952 0 0 1-1.624-1.129c-.452-.518-.678-1.21-.678-2.074a3.6 3.6 0 0 1 .613-2.046c.408-.61 1.024-1.095 1.847-1.453.823-.358 1.829-.537 3.017-.537.83 0 1.64.099 2.433.296.792.198 1.485.482 2.08.852l-.929 2.277c-1.2-.679-2.401-1.018-3.602-1.018-.842 0-1.464.136-1.866.407-.403.272-.604.63-.604 1.074 0 .445.232.775.697.99.464.217 1.172.43 2.126.64.99.234 1.8.469 2.432.703a4.028 4.028 0 0 1 1.625 1.111c.452.506.677 1.191.677 2.055 0 .74-.207 1.417-.622 2.028-.414.61-1.036 1.095-1.866 1.453-.829.358-1.838.537-3.026.537zm-13.648-2.555c.768 0 1.461-.176 2.08-.528a3.792 3.792 0 0 0 1.458-1.472c.352-.63.529-1.345.529-2.148 0-.802-.177-1.518-.53-2.147a3.792 3.792 0 0 0-1.457-1.472c-.619-.352-1.312-.528-2.08-.528-.767 0-1.46.176-2.08.528a3.792 3.792 0 0 0-1.457 1.472c-.353.63-.529 1.345-.529 2.147 0 .803.176 1.519.53 2.148.352.63.838 1.12 1.457 1.472.619.352 1.312.528 2.08.528zm0 2.555c-1.349 0-2.565-.29-3.648-.87a6.47 6.47 0 0 1-2.544-2.398c-.613-1.018-.92-2.163-.92-3.435 0-1.27.307-2.416.92-3.434a6.47 6.47 0 0 1 2.544-2.398c1.083-.58 2.3-.87 3.648-.87 1.35 0 2.563.29 3.64.87a6.553 6.553 0 0 1 2.543 2.398c.62 1.018.929 2.163.929 3.434 0 1.272-.31 2.417-.929 3.435a6.553 6.553 0 0 1-2.543 2.398c-1.077.58-2.29.87-3.64.87zm-11.827-6.906h2.748v5.258a7.86 7.86 0 0 1-2.451 1.222 9.54 9.54 0 0 1-2.804.426c-1.35 0-2.562-.287-3.64-.861a6.42 6.42 0 0 1-2.534-2.388c-.613-1.019-.919-2.17-.919-3.454 0-1.283.306-2.434.92-3.453.612-1.018 1.463-1.814 2.552-2.388 1.09-.574 2.315-.861 3.677-.861 1.138 0 2.172.191 3.1.574a6.144 6.144 0 0 1 2.34 1.666l-1.931 1.778c-.928-.975-2.049-1.463-3.36-1.463-.83 0-1.567.173-2.21.519a3.725 3.725 0 0 0-1.504 1.462c-.36.63-.539 1.352-.539 2.166 0 .803.18 1.519.539 2.148.359.63.857 1.12 1.494 1.472.638.352 1.365.528 2.182.528.867 0 1.646-.185 2.34-.556z"/></defs><g><g transform="translate(-155 -3610)"><g><use fill="#52555e" xlink:href="#ed3pa"/></g><g><use fill="#fff" xlink:href="#ed3pb"/></g><g><use fill="#fff" xlink:href="#ed3pc"/></g></g></g></svg>