<svg xmlns="http://www.w3.org/2000/svg" xmlns:xlink="http://www.w3.org/1999/xlink" width="42" height="42" viewBox="0 0 42 42"><defs><path id="cfi6a" d="M597.244 1726.765a1 1 0 0 0-.438.828v.623l-.07-.001h-1.128v-3.928l1.417-1.432c.386-.389.386-1.02 0-1.41a.98.98 0 0 0-1.396 0l-1.707 1.724c-.185.187-.29.44-.29.705v4.34h-2.255v-4.34c0-.265-.104-.518-.29-.705l-1.706-1.723a.981.981 0 0 0-1.396 0 1.003 1.003 0 0 0 0 1.41l1.417 1.43v3.929h-1.127l-.07.001v-.623a1 1 0 0 0-.44-.828 8.627 8.627 0 0 1-3.791-7.161c0-4.749 3.827-8.612 8.531-8.612 4.704 0 8.531 3.863 8.531 8.612a8.627 8.627 0 0 1-3.792 7.16zM580 1720c0-.552-.432-1-.966-1h-2.068c-.534 0-.966.448-.966 1s.432 1 .966 1h2.068c.534 0 .966-.448.966-1zm29.034-1h-2.068c-.533 0-.966.448-.966 1s.433 1 .966 1h2.068c.534 0 .966-.448.966-1s-.432-1-.966-1zm-28.59 7.131l-1.925 1.046c-.496.27-.666.867-.38 1.335.192.313.541.488.9.488.175 0 .354-.042.517-.131l1.925-1.046c.496-.27.666-.867.38-1.334-.287-.468-.921-.628-1.417-.358zM605.039 1714c.175 0 .354-.042.517-.131l1.925-1.046c.496-.27.666-.867.38-1.334-.287-.468-.921-.628-1.417-.358l-1.925 1.046c-.496.27-.666.867-.38 1.334.192.314.541.489.9.489zm2.442 13.177l-1.925-1.046c-.496-.27-1.13-.11-1.417.358-.286.467-.116 1.064.38 1.334l1.925 1.046c.163.089.341.131.517.131.359 0 .708-.175.9-.489.286-.467.116-1.064-.38-1.334zm-26-15l-1.925-1.046c-.496-.27-1.13-.11-1.417.358-.286.467-.116 1.064.38 1.334l1.925 1.046c.163.089.341.131.517.131.359 0 .708-.175.9-.489.286-.467.116-1.064-.38-1.334zm15.256 24.563h-8.464c-.622 0-1.128-.51-1.128-1.138 0-.627.506-1.137 1.128-1.137h8.464c.622 0 1.128.51 1.128 1.137 0 .628-.506 1.138-1.128 1.138zm-4.237 4.268a3.25 3.25 0 0 1-3.088-2.276h6.176a3.25 3.25 0 0 1-3.088 2.276zm4.237-10.811c.622 0 1.128.508 1.128 1.133 0 .624-.506 1.133-1.128 1.133h-8.464a1.132 1.132 0 0 1 0-2.266zM592.5 1709c-5.79 0-10.5 4.755-10.5 10.599 0 3.363 1.571 6.501 4.228 8.5v.885a3.135 3.135 0 0 0-1.057 2.35c0 .825.318 1.575.835 2.135a3.133 3.133 0 0 0-.835 2.133c0 1.404.92 2.595 2.184 2.99.407 2.497 2.558 4.408 5.145 4.408 2.587 0 4.738-1.911 5.145-4.407a3.132 3.132 0 0 0 2.184-2.99c0-.825-.318-1.575-.835-2.135.517-.56.835-1.31.835-2.133 0-.936-.41-1.777-1.057-2.351v-.885a10.619 10.619 0 0 0 4.228-8.5c0-5.844-4.71-10.599-10.5-10.599z"/><path id="cfi6c" d="M572 1747v-42h42v42z"/><clipPath id="cfi6b"><use xlink:href="#cfi6a"/></clipPath></defs><g><g transform="translate(-572 -1705)"><g><use xlink:href="#cfi6a"/></g><g clip-path="url(#cfi6b)"><g><use fill="#5d67e1" xlink:href="#cfi6c"/></g></g></g></g></svg>