<svg xmlns="http://www.w3.org/2000/svg" xmlns:xlink="http://www.w3.org/1999/xlink" width="30" height="34" viewBox="0 0 30 34"><defs><path id="3yo0a" d="M964 1711.69l4 2.285v7.982l-4 2.286zm12-8.06v4.666l-6.953 3.974-4.038-2.308zm1.005 6.398l5.942 3.388-5.942 3.388-5.943-3.388zm.995-6.398l10.99 6.332-4.037 2.308-6.953-3.974zm12 20.613l-4-2.286v-7.982l4-2.286zm-12 1.09v-6.787l6-3.428v6.785zm0 6.97v-4.667l6.953-3.973 4.038 2.307zm-2-6.97l-6-3.43v-6.785l6 3.428zm0 6.96l-10.926-6.36 3.973-2.27 6.953 3.973zm-14-22.338v16.022a1 1 0 0 0 .509.86l13.992 8.062c.524.302 1.004-.001.998 0l14-8.066c.007-.007.495-.277.5-.856l.001-.01v-16.001-.01a1 1 0 0 0-.486-.848l-.015-.008-14-8.067a1.003 1.003 0 0 0-.998 0l-14 8.067a1.004 1.004 0 0 0-.5.855z"/></defs><g><g transform="translate(-962 -1701)"><use fill="#0045db" xlink:href="#3yo0a"/></g></g></svg>