<svg xmlns="http://www.w3.org/2000/svg" xmlns:xlink="http://www.w3.org/1999/xlink" width="42" height="42" viewBox="0 0 42 42"><defs><path id="p6gea" d="M217.648 1731.898l-7.193-3.99 7.198-3.993 7.193 3.99zm-.693 9.184l-7.252-4.013v-7.976l7.252 4.013zm-7.946-18.133a.703.703 0 0 0-.703.703v3.054l-7.242-4.012v-7.976l7.604 4.214a.703.703 0 0 0 .682 0l7.604-4.214v7.971l-7.242 4.012v-3.049a.703.703 0 0 0-.703-.703zm-.702 14.12l-7.252 4.013v-7.976l7.252-4.013zm-7.955-5.181l-7.198-3.988 7.198-3.988 7.197 3.988zm-.704 9.194l-7.242-4.013v-7.976l7.242 4.013zm9.36-31.545l7.199 3.983-7.198 3.983-7.198-3.983zm17.63 17.748l-8.278-4.586v-9.174a.703.703 0 0 0-.362-.615l-8.648-4.792a.703.703 0 0 0-.682 0l-8.648 4.792a.703.703 0 0 0-.363.615v9.164l-8.295 4.596a.703.703 0 0 0-.362.615v9.583c0 .256.139.491.362.615l8.649 4.792a.703.703 0 0 0 .681 0l8.308-4.603 8.308 4.603a.703.703 0 0 0 .681 0l2.017-1.117a.703.703 0 1 0-.682-1.23l-.972.539v-7.976l7.242-4.013v7.976l-1.415.784a.703.703 0 1 0 .682 1.23l1.777-.985a.703.703 0 0 0 .362-.615v-9.583a.703.703 0 0 0-.362-.615z"/><path id="p6gec" d="M188 1747v-42h42v42z"/><clipPath id="p6geb"><use xlink:href="#p6gea"/></clipPath></defs><g><g transform="translate(-188 -1705)"><g><use xlink:href="#p6gea"/></g><g clip-path="url(#p6geb)"><g><use fill="#5d67e1" xlink:href="#p6gec"/></g></g></g></g></svg>