<svg xmlns="http://www.w3.org/2000/svg" xmlns:xlink="http://www.w3.org/1999/xlink" width="32" height="32" viewBox="0 0 32 32"><defs><path id="8ezmb" d="M516 3860c0-8.837 7.163-16 16-16s16 7.163 16 16-7.163 16-16 16-16-7.163-16-16z"/><path id="8ezma" d="M535.115 3865.872v-8.687h-1.077v8.687h-1.076v-8.687h-1.077v8.687h-1.077v-8.687h-1.077v8.687h-1.077v-9.818a2.685 2.685 0 0 0 1.615-1.023h4.308c.398.529.969.892 1.615 1.023v9.818zm-8.615-12.457c0-.892.722-1.615 1.615-1.615h8.616a1.614 1.614 0 1 1 0 3.23 1.614 1.614 0 0 1-1.616-1.615h-1.077c0 .183.019.363.054.539h-3.338c.035-.176.054-.356.054-.539h-1.077a1.614 1.614 0 1 1-3.231 0zm10.77 14.61h-9.693v-.538a.54.54 0 0 1 .538-.538h8.616a.54.54 0 0 1 .538.538z"/><path id="8ezmd" d="M520 3872v-24h24v24z"/><clipPath id="8ezmc"><use xlink:href="#8ezma"/></clipPath></defs><g><g transform="translate(-516 -3844)"><g><use fill="#5d67e1" xlink:href="#8ezmb"/></g><g><g><use fill="#5d67e1" xlink:href="#8ezma"/></g><g clip-path="url(#8ezmc)"><g><use fill="#fff" xlink:href="#8ezmd"/></g></g></g></g></g></svg>