<svg xmlns="http://www.w3.org/2000/svg" xmlns:xlink="http://www.w3.org/1999/xlink" width="32" height="32" viewBox="0 0 32 32"><defs><path id="t4mvb" d="M828 3784c0-8.837 7.163-16 16-16s16 7.163 16 16-7.163 16-16 16-16-7.163-16-16z"/><path id="t4mva" d="M838.4 3792.6v-4.74h1.89v.95h.95v-4.74h.95v-3.79h.95v-1.89h1.89v1.89h.95v3.79h.95v4.74h.94v-.95h1.9v4.74zm4.74-17.055a.945.945 0 1 1 1.89 0 .945.945 0 0 1-1.89 0zm.945 12.315c.787 0 1.425-.636 1.425-1.42 0-.784-.638-1.42-1.425-1.42s-1.425.636-1.425 1.42c0 .784.638 1.42 1.425 1.42z"/><path id="t4mvd" d="M832 3796v-24h24v24z"/><clipPath id="t4mvc"><use xlink:href="#t4mva"/></clipPath></defs><g><g transform="translate(-828 -3768)"><g><use fill="#5d67e1" xlink:href="#t4mvb"/></g><g><g><use fill="#5d67e1" xlink:href="#t4mva"/></g><g clip-path="url(#t4mvc)"><g><use fill="#fff" xlink:href="#t4mvd"/></g></g></g></g></g></svg>