<svg xmlns="http://www.w3.org/2000/svg" xmlns:xlink="http://www.w3.org/1999/xlink" width="32" height="32" viewBox="0 0 32 32"><defs><path id="bmx6b" d="M828 3860c0-8.837 7.163-16 16-16s16 7.163 16 16-7.163 16-16 16-16-7.163-16-16z"/><path id="bmx6a" d="M836.8 3859.883c0-1.01.2-1.974.56-2.857l1.893-2.348.49-.786a7.543 7.543 0 0 1 4.64-1.592l.126.003.846.312 1.865.238a7.626 7.626 0 0 1 3.043 2.247l-.311 1.353 1.226 3.456.783.198c-.12 4.078-3.472 7.358-7.578 7.358-2.044 0-3.9-.814-5.266-2.134l1.472-1.264-1.405-3.62-2.197-.757-.051 1.614a7.566 7.566 0 0 1-.136-1.421zm8.372-1.226l2.146-3.077-2.61-2.44-3.648 1.315.122 3.443zm-1.402 6.223l1.958 2.045 3.42-1.464.557-3.03-3.394-.42z"/><path id="bmx6d" d="M832 3872v-24h24v24z"/><clipPath id="bmx6c"><use xlink:href="#bmx6a"/></clipPath></defs><g><g transform="translate(-828 -3844)"><g><use fill="#5d67e1" xlink:href="#bmx6b"/></g><g><g><use fill="#5d67e1" xlink:href="#bmx6a"/></g><g clip-path="url(#bmx6c)"><g><use fill="#fff" xlink:href="#bmx6d"/></g></g></g></g></g></svg>