<svg xmlns="http://www.w3.org/2000/svg" xmlns:xlink="http://www.w3.org/1999/xlink" width="32" height="32" viewBox="0 0 32 32"><defs><path id="xt88b" d="M1089 3784c0-8.837 7.163-16 16-16s16 7.163 16 16-7.163 16-16 16-16-7.163-16-16z"/><path id="xt88a" d="M1106.346 3780.67c1.265-1.111 3.03-1.203 4.167-.222-1.187 1.464-3.188 2.214-4.903 1.528a22.109 22.109 0 0 0-.983 2.169c1.05-1.294 2.756-1.678 4.044-.92-.902 1.629-2.737 2.716-4.545 2.348a22.104 22.104 0 0 0-.58 2.276c.81-1.46 2.42-2.128 3.817-1.606-.604 1.76-2.22 3.163-4.065 3.118-.05.388-.089.777-.118 1.169.215-.232.456-.438.72-.592.937-.554 1.822-.488 2.744-.18-.903-.142-1.746-.06-2.527.624-.445.384-.808.947-.997 1.637a22.14 22.14 0 0 0 .044 1.559l-.34.022a22.451 22.451 0 0 1 .133-4.255c-1.873-.254-3.152-2.677-2.27-5.317 1.543.57 2.377 2.304 2.436 4.224.165-.93.388-1.848.667-2.746-1.794-.575-2.632-3.17-1.306-5.623 1.418.832 1.932 2.698 1.653 4.597.33-.906.718-1.79 1.162-2.646-1.664-.881-2.035-3.576-.285-5.768 1.247 1.066 1.419 2.995.811 4.812.3-.514.62-1.017.96-1.506-.092-2.141 1.997-4.367 4.182-4.372-.465 2.024-1.912 3.704-3.811 4.435-.284.403-.554.815-.81 1.235zm-4.31 9.66c.26.244.487.538.689.837-.027.588-.03 1.18-.01 1.772-.191-.874-.536-1.599-.97-2.165-.757-.99-1.538-1.257-2.345-1.313.854-.137 1.707-.02 2.636.868z"/><path id="xt88d" d="M1093 3796v-24h24v24z"/><clipPath id="xt88c"><use xlink:href="#xt88a"/></clipPath></defs><g><g transform="translate(-1089 -3768)"><g><use fill="#5d67e1" xlink:href="#xt88b"/></g><g><g><use fill="#5d67e1" xlink:href="#xt88a"/></g><g clip-path="url(#xt88c)"><g><use fill="#fff" xlink:href="#xt88d"/></g></g></g></g></g></svg>