<svg xmlns="http://www.w3.org/2000/svg" xmlns:xlink="http://www.w3.org/1999/xlink" width="32" height="32" viewBox="0 0 32 32"><defs><path id="qd5ob" d="M516 3784c0-8.837 7.163-16 16-16s16 7.163 16 16-7.163 16-16 16-16-7.163-16-16z"/><path id="qd5oa" d="M531.87 3792.77h-1.688s-.282-7.882-2.815-13.511c-2.533-5.63 1.126-3.94 2.815-2.815 1.689 1.126 1.689 5.067 1.689 5.067zm.26-11.26s0-3.94 1.688-5.066c1.69-1.126 5.348-2.815 2.815 2.815s-2.815 13.51-2.815 13.51h-1.689z"/><path id="qd5od" d="M520 3796v-24h24v24z"/><clipPath id="qd5oc"><use xlink:href="#qd5oa"/></clipPath></defs><g><g transform="translate(-516 -3768)"><g><use fill="#5d67e1" xlink:href="#qd5ob"/></g><g><g><use fill="#5d67e1" xlink:href="#qd5oa"/></g><g clip-path="url(#qd5oc)"><g><use fill="#fff" xlink:href="#qd5od"/></g></g></g></g></g></svg>