<svg xmlns="http://www.w3.org/2000/svg" xmlns:xlink="http://www.w3.org/1999/xlink" width="95" height="23" viewBox="0 0 95 23"><defs><path id="sob6a" d="M107.977 33.188h-3.495v-2.006H114v2.006h-3.495v8.63h-2.528zm-4.276 6.655v1.975h-8.457V31.182h8.254v1.975h-5.742v2.31h5.072v1.914h-5.072v2.462zm-16.025-2.204l-1.467 1.49v2.689h-2.512V31.182h2.512v4.969l4.837-4.969h2.81l-4.526 4.74 4.79 5.896h-2.949zm-9.534.03L76.41 33.6l-1.732 4.07zm.796 1.87h-5.072l-.967 2.279h-2.59l4.868-10.636h2.497l4.884 10.636h-2.653zm-12.156 2.279l-.015-6.382-3.215 5.257h-1.139l-3.199-5.12v6.245h-2.372V31.182h2.091l4.089 6.61 4.025-6.61h2.076l.031 10.636zM50.476 42a9.162 9.162 0 0 1-2.504-.342c-.807-.228-1.454-.524-1.943-.889l.858-1.853a5.887 5.887 0 0 0 1.67.805c.645.203 1.29.304 1.935.304.717 0 1.248-.104 1.591-.312.344-.207.515-.483.515-.828a.783.783 0 0 0-.304-.63 2.328 2.328 0 0 0-.78-.403 15.863 15.863 0 0 0-1.288-.334 18.164 18.164 0 0 1-2.044-.577 3.323 3.323 0 0 1-1.365-.927c-.38-.426-.57-.993-.57-1.702 0-.618.172-1.177.515-1.679.344-.501.861-.899 1.553-1.192.692-.294 1.537-.441 2.536-.441.696 0 1.378.081 2.044.243a6.13 6.13 0 0 1 1.747.699l-.78 1.869c-1.009-.557-2.018-.836-3.027-.836-.707 0-1.23.112-1.568.334-.338.223-.507.517-.507.882 0 .364.195.635.585.812.39.178.985.352 1.786.525.833.192 1.514.385 2.044.577.531.192.986.496 1.366.912.38.415.57.977.57 1.686a2.85 2.85 0 0 1-.523 1.664c-.349.501-.872.899-1.569 1.192-.697.294-1.544.441-2.543.441zm-11.469-2.107c.645 0 1.228-.144 1.748-.432.52-.288.928-.69 1.225-1.206.296-.516.444-1.103.444-1.76s-.148-1.244-.444-1.76a3.147 3.147 0 0 0-1.225-1.206 3.544 3.544 0 0 0-1.748-.432c-.645 0-1.227.144-1.748.432-.52.288-.928.69-1.225 1.206-.296.516-.444 1.103-.444 1.76s.148 1.244.444 1.76c.297.516.705.918 1.225 1.206.52.288 1.103.432 1.748.432zm0 2.107c-1.134 0-2.156-.238-3.066-.714a5.385 5.385 0 0 1-2.138-1.968c-.515-.835-.772-1.775-.772-2.818 0-1.043.257-1.983.772-2.818a5.385 5.385 0 0 1 2.138-1.968c.91-.476 1.932-.714 3.066-.714s2.153.238 3.058.714a5.455 5.455 0 0 1 2.138 1.968c.52.835.78 1.775.78 2.818 0 1.043-.26 1.983-.78 2.818a5.455 5.455 0 0 1-2.138 1.968c-.905.476-1.924.714-3.058.714zm-9.94-5.667h2.31v4.315c-.593.435-1.28.77-2.06 1.003-.78.233-1.566.349-2.356.349-1.134 0-2.154-.235-3.059-.706a5.344 5.344 0 0 1-2.13-1.96c-.515-.836-.772-1.78-.772-2.834 0-1.053.257-1.998.772-2.834.515-.835 1.23-1.489 2.146-1.96.915-.47 1.945-.706 3.09-.706.957 0 1.825.157 2.605.471.78.314 1.436.77 1.967 1.367l-1.623 1.459c-.78-.8-1.722-1.2-2.825-1.2-.697 0-1.316.141-1.857.425-.54.284-.962.684-1.263 1.2-.302.517-.453 1.11-.453 1.778 0 .658.15 1.246.453 1.762.301.517.72.92 1.256 1.208.535.289 1.147.433 1.833.433.728 0 1.384-.152 1.966-.455z"/><path id="sob6b" d="M110.85 47.536c0 .644.42.965 1.259.965h1.342v-1.946h-1.3c-.867 0-1.3.327-1.3.981zm3.15-1.503v4.36h-.549V48.95h-1.562l-1.03 1.442h-.65l1.106-1.525c-.343-.094-.608-.254-.794-.48-.185-.227-.278-.514-.278-.862 0-.486.169-.856.506-1.11.338-.255.8-.382 1.385-.382zm-7.016 3.937c.338 0 .627-.076.87-.228.242-.152.422-.372.54-.66v-.712H107c-.76 0-1.14.26-1.14.78 0 .253.098.454.295.6.197.146.473.22.828.22zm.21-3.97c.58 0 1.025.142 1.335.427.31.284.464.706.464 1.264v2.701h-.574v-.68a1.366 1.366 0 0 1-.595.531c-.262.127-.573.19-.933.19-.495 0-.89-.115-1.182-.347a1.116 1.116 0 0 1-.44-.92c0-.37.137-.669.41-.895.273-.227.708-.34 1.305-.34h1.41v-.265c0-.376-.107-.662-.321-.858-.214-.196-.526-.294-.937-.294-.282 0-.552.045-.81.137a2.052 2.052 0 0 0-.668.377l-.27-.44a2.41 2.41 0 0 1 .81-.435 3.21 3.21 0 0 1 .997-.153zm-4.82 2.453h-1.013v1.94h-.6v-4.36h.6v1.915h1.021l1.562-1.915h.65l-1.747 2.113 1.874 2.246h-.71zm-4.514 1.98c-.438 0-.83-.093-1.175-.281a2.057 2.057 0 0 1-.813-.792 2.25 2.25 0 0 1-.295-1.147c0-.426.099-.807.295-1.144.197-.337.467-.6.813-.787A2.418 2.418 0 0 1 97.86 46c.381 0 .723.073 1.023.22.3.146.538.36.712.642l-.447.298a1.39 1.39 0 0 0-.556-.485 1.672 1.672 0 0 0-.732-.161c-.32 0-.608.07-.864.211-.255.141-.454.341-.598.601-.143.26-.214.555-.214.887 0 .337.071.634.214.89.144.258.343.456.598.597.256.141.544.212.864.212.264 0 .508-.053.732-.158.225-.105.41-.265.556-.48l.447.298a1.684 1.684 0 0 1-.716.642c-.303.147-.643.22-1.02.22zm-5.398-.521c.31 0 .59-.07.844-.212.253-.14.452-.34.595-.6.144-.26.216-.556.216-.887 0-.332-.072-.626-.216-.883a1.542 1.542 0 0 0-.595-.6 1.681 1.681 0 0 0-.844-.216c-.315 0-.598.072-.849.215a1.55 1.55 0 0 0-.59.601 1.779 1.779 0 0 0-.216.883c0 .331.072.627.215.886.144.26.34.46.591.601.25.141.534.212.849.212zM92.504 46c.417 0 .794.093 1.131.278.338.185.603.446.794.783.191.337.287.72.287 1.152 0 .436-.096.823-.287 1.16a2.012 2.012 0 0 1-.79.783 2.308 2.308 0 0 1-1.135.278c-.36 0-.685-.073-.975-.22a1.836 1.836 0 0 1-.714-.642V52h-.599v-5.967h.574v.862c.18-.287.418-.508.714-.663a2.125 2.125 0 0 1 1-.232zm-5.767.506c-.427 0-.786.133-1.076.401-.29.268-.455.618-.494 1.049h3.15c-.04-.431-.205-.78-.495-1.049-.29-.267-.651-.401-1.085-.401zm2.145 1.889h-3.715c.034.453.211.82.532 1.098.32.28.726.419 1.216.419.276 0 .529-.049.76-.145.23-.097.43-.24.6-.427l.337.381a1.9 1.9 0 0 1-.739.53 2.54 2.54 0 0 1-.975.183c-.456 0-.86-.096-1.212-.286a2.082 2.082 0 0 1-.823-.792 2.224 2.224 0 0 1-.295-1.143c0-.426.094-.807.282-1.144.189-.337.448-.6.777-.787a2.2 2.2 0 0 1 1.11-.282c.411 0 .78.094 1.106.282.327.188.583.449.769.783.186.334.278.717.278 1.148zm-4.753-1.84h-1.68v3.837h-.6v-3.837h-1.68v-.522h3.96zm-6.02 3.879a2.43 2.43 0 0 1-1.178-.282 2.06 2.06 0 0 1-.815-.792 2.246 2.246 0 0 1-.295-1.147c0-.426.098-.807.295-1.144.197-.337.469-.6.815-.787A2.43 2.43 0 0 1 78.109 46c.382 0 .724.073 1.026.22.3.146.538.36.713.642l-.448.298a1.392 1.392 0 0 0-.557-.485 1.68 1.68 0 0 0-.734-.161c-.321 0-.61.07-.866.211s-.456.341-.6.601c-.143.26-.214.555-.214.887 0 .337.071.634.215.89.143.258.343.456.6.597.255.141.544.212.865.212.264 0 .51-.053.734-.158.225-.105.411-.265.557-.48l.448.298a1.687 1.687 0 0 1-.718.642c-.304.147-.644.22-1.021.22zm-5.459-.464c.34 0 .63-.076.874-.228.243-.152.423-.372.542-.66v-.712h-1.399c-.762 0-1.144.26-1.144.78 0 .253.099.454.297.6.198.146.474.22.83.22zm.212-3.97c.582 0 1.027.142 1.338.427.31.284.465.706.465 1.264v2.701h-.575v-.68a1.368 1.368 0 0 1-.597.531c-.262.127-.574.19-.935.19-.497 0-.892-.115-1.186-.347a1.115 1.115 0 0 1-.44-.92c0-.37.137-.669.41-.895.274-.227.71-.34 1.309-.34h1.413v-.265c0-.376-.107-.662-.321-.858-.215-.196-.528-.294-.94-.294-.282 0-.553.045-.813.137-.26.09-.482.216-.668.377l-.271-.44c.225-.187.496-.332.812-.435.316-.102.65-.153 1-.153zm-3.239.033v4.36h-.548v-3.448l-1.799 2.917h-.27l-1.798-2.926v3.456h-.55v-4.359h.609l1.883 3.141 1.916-3.14zm-12.03 1.503c0 .644.418.965 1.257.965h1.343v-1.946h-1.3c-.867 0-1.3.327-1.3.981zm3.148-1.503v4.36h-.548V48.95H58.63l-1.03 1.442h-.65l1.105-1.525c-.343-.094-.607-.254-.793-.48-.186-.227-.279-.514-.279-.862 0-.486.17-.856.507-1.11.338-.255.8-.382 1.384-.382zM53.73 49.97c.339 0 .63-.076.873-.228.243-.152.424-.372.542-.66v-.712h-1.398c-.763 0-1.145.26-1.145.78 0 .253.1.454.297.6.198.146.475.22.83.22zm.206-3.97c.58 0 1.025.142 1.334.427.31.284.465.706.465 1.264v2.701h-.574v-.68a1.366 1.366 0 0 1-.596.531c-.261.127-.572.19-.933.19-.495 0-.889-.115-1.182-.347a1.116 1.116 0 0 1-.439-.92c0-.37.137-.669.41-.895.273-.227.708-.34 1.304-.34h1.41v-.265c0-.376-.107-.662-.32-.858-.215-.196-.527-.294-.938-.294-.281 0-.551.045-.81.137a2.052 2.052 0 0 0-.667.377l-.27-.44a2.41 2.41 0 0 1 .81-.435 3.21 3.21 0 0 1 .996-.153zm-7.227.033h.6v1.931h2.794v-1.93h.6v4.358h-.6V48.47h-2.795v1.922h-.599zm-.87.522h-1.68v3.837h-.6v-3.837h-1.68v-.522h3.96zm-6.602-.05c-.428 0-.787.134-1.077.402-.29.268-.454.618-.493 1.049h3.149c-.04-.431-.204-.78-.494-1.049-.29-.267-.652-.401-1.085-.401zm2.144 1.89h-3.714c.033.453.21.82.531 1.098.321.28.727.419 1.216.419.276 0 .53-.049.76-.145.23-.097.43-.24.6-.427l.337.381a1.9 1.9 0 0 1-.738.53 2.54 2.54 0 0 1-.976.183c-.456 0-.86-.096-1.211-.286a2.082 2.082 0 0 1-.823-.792 2.224 2.224 0 0 1-.296-1.143c0-.426.094-.807.283-1.144.188-.337.447-.6.777-.787a2.2 2.2 0 0 1 1.11-.282c.41 0 .78.094 1.106.282.326.188.583.449.768.783.186.334.279.717.279 1.148zm-7.176.058h-1.013v1.94h-.6v-4.36h.6v1.915h1.021l1.562-1.915h.65l-1.747 2.113 1.874 2.246h-.71zm-5.213 1.517c.339 0 .63-.076.873-.228.243-.152.423-.372.542-.66v-.712H29.01c-.763 0-1.145.26-1.145.78 0 .253.1.454.297.6.198.146.475.22.83.22zm.211-3.97c.582 0 1.028.142 1.338.427.31.284.466.706.466 1.264v2.701h-.576v-.68a1.368 1.368 0 0 1-.597.531c-.262.127-.574.19-.935.19-.497 0-.892-.115-1.186-.347a1.115 1.115 0 0 1-.44-.92c0-.37.137-.669.41-.895.274-.227.71-.34 1.309-.34h1.413v-.265c0-.376-.107-.662-.321-.858-.215-.196-.528-.294-.94-.294-.282 0-.553.045-.813.137-.26.09-.482.216-.668.377l-.271-.44c.225-.187.496-.332.812-.435.316-.102.65-.153 1-.153zm-3.238.033v4.36h-.55v-3.448l-1.798 2.917h-.27l-1.798-2.926v3.456H21v-4.359h.608l1.883 3.141 1.916-3.14z"/></defs><g><g transform="translate(-20 -30)"><g><use fill="#14151e" xlink:href="#sob6a"/></g><g><use fill="#14151e" xlink:href="#sob6b"/></g></g></g></svg>