<svg xmlns="http://www.w3.org/2000/svg" xmlns:xlink="http://www.w3.org/1999/xlink" width="137" height="57" viewBox="0 0 137 57"><defs><path id="1duna" d="M162.36 33c3.22.004 5.954 3.756 8.985 6.045 4.757 3.591 16.438.154 17.13 5.655.299 2.38.255 4.794.383 7.19l.218 1.754c.384 2.162 1.316 4.296 1.15 6.488-.155 2.056-5.302 3.334-5.88 3.463-5.263 1.177-12.802 1.633-17.895.92-1.257-.175-8.37-.714-9.715-4.076-1.753-4.38 5.364-4.795 5.448-8.067.132-5.08-10.2-10.199-4.431-16.747 1.67-1.896 3.181-2.623 4.597-2.625h.01z"/><path id="1dunb" d="M161.19 68.263c0-.373.294-.675.656-.675h18.405c.363 0 .656.3.656.675v1.35c0 .373-.147.937-.328 1.26l-8.872 15.8c-.364.647-.953.647-1.317 0l-8.872-15.8a3.028 3.028 0 0 1-.328-1.26zm1.844 2.793c-.01-.03-.02-.06-.027-.088l.068.244a4.078 4.078 0 0 1-.04-.156zm.25.521l5.05 7.614c.205.31.664.558 1.027.558l3.374.003c.363 0 .822-.25 1.026-.558l5.052-7.617c.087-.132.19-.348.25-.521.265-1.123-.232-1.393-1.157-.58l-.442.387a.762.762 0 0 1-.992-.01l-1.974-1.803a.745.745 0 0 0-.983 0l-1.975 1.803a.745.745 0 0 1-.983 0l-1.974-1.803a.745.745 0 0 0-.984 0l-1.974 1.803a.763.763 0 0 1-.992.01l-.441-.387c-.928-.814-1.424-.546-1.158.58.06.173.163.39.25.521zm15.779-.521c-.012.05-.025.102-.04.156l.068-.244a1.511 1.511 0 0 1-.028.088zm-11.3-15.734V44.293c0-.746.488-1.686 1.092-2.1l8.766-6.003v9.678l-5.48 3.753c-.603.414-1.092 1.355-1.092 2.103v1.347zm4.272-2.926c0-.746.49-1.686 1.093-2.099l7.79-5.329v20.931a.668.668 0 0 1-.66.677h-8.223zM161.19 62.53c0-.745.489-1.685 1.093-2.099l8.766-6.009v12.165h-9.204a.665.665 0 0 1-.655-.674z"/><path id="1dunc" d="M284.932 54.184h-3.505v-2.066h9.546v2.066h-3.505v8.89h-2.536zm-4.289 6.856v2.035h-8.491V52.118h8.288v2.035h-5.766v2.379h5.092v1.972h-5.092v2.536zm-16.093-2.27l-1.471 1.534v2.77h-2.52V52.119h2.52v5.118l4.852-5.118h2.817l-4.54 4.884 4.806 6.073h-2.958zm-9.569.038l-1.739-4.199-1.739 4.199zm.8 1.919h-5.092l-.972 2.348h-2.6l4.888-10.957h2.506l4.904 10.957h-2.663zm-12.205 2.348l-.016-6.574-3.227 5.415h-1.144l-3.211-5.274v6.433h-2.382V52.118h2.1l4.104 6.809 4.042-6.809h2.084l.031 10.957zm-16.372.198a8.973 8.973 0 0 1-2.514-.353c-.81-.235-1.46-.54-1.95-.916l.861-1.912c.47.345 1.029.622 1.676.83a6.296 6.296 0 0 0 1.943.314c.72 0 1.253-.107 1.598-.321.345-.214.517-.499.517-.854a.816.816 0 0 0-.305-.65 2.316 2.316 0 0 0-.784-.415 15.59 15.59 0 0 0-1.292-.345c-.836-.198-1.52-.397-2.053-.595a3.334 3.334 0 0 1-1.37-.956c-.382-.439-.572-1.024-.572-1.755 0-.637.172-1.214.517-1.73.344-.518.864-.928 1.559-1.23.694-.304 1.543-.455 2.545-.455.7 0 1.384.084 2.053.25a6.063 6.063 0 0 1 1.754.721l-.783 1.927c-1.013-.574-2.026-.861-3.04-.861-.71 0-1.234.115-1.574.344-.34.23-.509.533-.509.909s.196.655.587.838c.392.183.99.363 1.794.54.836.2 1.52.398 2.053.596.532.198.99.512 1.37.94.382.428.572 1.008.572 1.739 0 .627-.175 1.198-.525 1.715-.35.517-.874.927-1.574 1.23-.7.303-1.551.455-2.554.455zM215.69 61.11a3.48 3.48 0 0 0 1.755-.447 3.204 3.204 0 0 0 1.23-1.245c.298-.533.446-1.139.446-1.818s-.149-1.284-.446-1.817a3.204 3.204 0 0 0-1.23-1.246 3.48 3.48 0 0 0-1.755-.446 3.48 3.48 0 0 0-1.754.447 3.204 3.204 0 0 0-1.23 1.245c-.298.533-.447 1.138-.447 1.817 0 .68.15 1.285.447 1.818.298.532.707.948 1.23 1.245a3.48 3.48 0 0 0 1.754.447zm0 2.162c-1.138 0-2.164-.246-3.078-.737a5.465 5.465 0 0 1-2.146-2.029c-.517-.861-.776-1.83-.776-2.906 0-1.075.259-2.044.776-2.906a5.465 5.465 0 0 1 2.146-2.029c.914-.49 1.94-.736 3.078-.736 1.139 0 2.162.245 3.071.736a5.536 5.536 0 0 1 2.146 2.03c.523.86.784 1.83.784 2.905 0 1.076-.261 2.045-.784 2.906a5.536 5.536 0 0 1-2.146 2.03c-.909.49-1.932.736-3.07.736zm-9.98-5.844h2.32v4.45a6.624 6.624 0 0 1-2.069 1.033c-.783.24-1.572.36-2.365.36-1.139 0-2.162-.242-3.071-.728a5.423 5.423 0 0 1-2.139-2.02c-.517-.862-.775-1.836-.775-2.923 0-1.086.258-2.06.775-2.921a5.397 5.397 0 0 1 2.155-2.021c.919-.486 1.953-.729 3.102-.729.96 0 1.833.162 2.616.486a5.184 5.184 0 0 1 1.974 1.41l-1.63 1.504c-.783-.825-1.728-1.238-2.835-1.238-.7 0-1.321.146-1.864.439a3.147 3.147 0 0 0-1.27 1.237c-.302.533-.454 1.144-.454 1.833 0 .68.152 1.285.455 1.818.303.532.723.948 1.26 1.245.539.298 1.152.447 1.842.447.73 0 1.389-.157 1.974-.47z"/><path id="1dund" d="M287.769 69.032c0 .659.42.988 1.259.988h1.344v-1.994h-1.302c-.867 0-1.301.335-1.301 1.006zm3.152-1.538v4.455h-.55v-1.474h-1.563l-1.03 1.474h-.651l1.107-1.559c-.344-.096-.609-.26-.795-.49-.186-.232-.279-.526-.279-.882 0-.497.17-.875.508-1.135.338-.26.8-.39 1.385-.39zm-7.022 4.014c.338 0 .628-.078.87-.233.242-.155.423-.379.54-.671v-.727h-1.393c-.761 0-1.141.265-1.141.794 0 .26.098.463.295.613.198.15.474.224.829.224zm.21-4.048c.581 0 1.026.145 1.336.435.31.29.465.72.465 1.289v2.755h-.575v-.693a1.376 1.376 0 0 1-.596.54c-.262.13-.573.195-.933.195-.496 0-.89-.118-1.183-.355a1.146 1.146 0 0 1-.44-.938c0-.377.137-.682.41-.913.273-.23.708-.346 1.306-.346h1.41v-.27c0-.384-.106-.675-.32-.875-.214-.2-.527-.3-.938-.3-.282 0-.552.046-.812.14-.259.092-.481.22-.667.384l-.27-.448c.225-.192.495-.34.81-.444.316-.104.649-.156.998-.156zm-4.824 2.507h-1.014v1.982h-.6v-4.455h.6v1.956h1.022l1.563-1.956h.651l-1.75 2.16 1.877 2.295h-.71zm-4.513 2.014c-.44 0-.832-.096-1.179-.287a2.08 2.08 0 0 1-.815-.807 2.324 2.324 0 0 1-.296-1.17 2.3 2.3 0 0 1 .296-1.167c.197-.344.469-.611.815-.803.347-.191.74-.287 1.18-.287.382 0 .725.075 1.026.224.301.15.54.368.714.655l-.448.304a1.401 1.401 0 0 0-.558-.494 1.655 1.655 0 0 0-.735-.165c-.32 0-.61.072-.866.215a1.514 1.514 0 0 0-.6.613 1.865 1.865 0 0 0-.215.904c0 .344.071.647.215.909.144.262.344.464.6.608.256.144.545.216.866.216.265 0 .51-.054.735-.161a1.37 1.37 0 0 0 .558-.49l.448.304a1.7 1.7 0 0 1-.718.655 2.29 2.29 0 0 1-1.023.224zm-5.408-.522c.31 0 .592-.072.845-.217.254-.144.452-.348.596-.614.143-.265.215-.568.215-.907 0-.339-.072-.64-.215-.902a1.56 1.56 0 0 0-.596-.615 1.655 1.655 0 0 0-.845-.22c-.315 0-.599.073-.85.22a1.57 1.57 0 0 0-.59.615 1.85 1.85 0 0 0-.216.902c0 .34.072.642.215.907.144.266.341.47.592.614.25.145.534.217.849.217zm.042-3.999c.417 0 .795.094 1.133.283.338.189.602.455.794.799.191.343.287.735.287 1.174 0 .445-.096.84-.287 1.183-.192.344-.455.61-.79.799a2.276 2.276 0 0 1-1.137.283c-.36 0-.686-.075-.976-.224a1.85 1.85 0 0 1-.714-.655v2.476h-.6v-6.084h.575v.879c.18-.293.418-.519.714-.676.296-.158.63-.237 1.001-.237zm-5.771.516c-.429 0-.788.135-1.078.407-.29.271-.455.625-.494 1.061h3.152c-.04-.436-.204-.79-.494-1.061-.29-.272-.653-.408-1.086-.408zm2.146 1.926h-3.718c.034.462.211.835.532 1.12.321.284.727.427 1.217.427.276 0 .53-.05.76-.148.232-.099.432-.244.6-.436l.339.39a1.903 1.903 0 0 1-.74.54 2.5 2.5 0 0 1-.976.186c-.456 0-.86-.097-1.212-.292a2.102 2.102 0 0 1-.824-.807 2.3 2.3 0 0 1-.296-1.166c0-.434.094-.822.283-1.166a2.05 2.05 0 0 1 .777-.803c.33-.191.7-.287 1.112-.287.41 0 .78.096 1.107.287.326.192.583.458.769.799.186.34.278.73.278 1.17zm-4.758-1.875h-1.681v3.922h-.6v-3.922h-1.682v-.533h3.963zm-6.025 3.954c-.44 0-.832-.096-1.178-.287a2.08 2.08 0 0 1-.816-.807 2.324 2.324 0 0 1-.296-1.17 2.3 2.3 0 0 1 .296-1.167c.197-.344.47-.611.816-.803.346-.191.739-.287 1.178-.287.383 0 .726.075 1.027.224.301.15.54.368.714.655l-.448.304a1.401 1.401 0 0 0-.557-.494 1.655 1.655 0 0 0-.736-.165c-.32 0-.61.072-.866.215a1.514 1.514 0 0 0-.6.613 1.865 1.865 0 0 0-.215.904c0 .344.072.647.215.909.144.262.344.464.6.608.257.144.545.216.866.216.265 0 .51-.054.736-.161a1.37 1.37 0 0 0 .557-.49l.448.304a1.7 1.7 0 0 1-.718.655 2.29 2.29 0 0 1-1.023.224zm-5.471-.473c.336 0 .625-.078.867-.233.24-.155.42-.379.538-.671v-.727h-1.389c-.757 0-1.136.265-1.136.794 0 .26.098.463.295.613.196.15.471.224.825.224zm.21-4.048c.579 0 1.023.145 1.332.435.309.29.463.72.463 1.289v2.755h-.573v-.693a1.373 1.373 0 0 1-.594.54c-.261.13-.572.195-.931.195-.495 0-.888-.118-1.18-.355a1.147 1.147 0 0 1-.438-.938c0-.377.136-.682.408-.913.273-.23.707-.346 1.302-.346h1.408v-.27c0-.384-.107-.675-.32-.875-.214-.2-.526-.3-.936-.3-.28 0-.55.046-.809.14-.258.092-.48.22-.666.384l-.27-.448a2.39 2.39 0 0 1 .81-.444c.314-.104.646-.156.994-.156zm-3.231.034v4.455h-.55v-3.524l-1.8 2.982h-.27l-1.8-2.99v3.532h-.55v-4.455h.61l1.884 3.21 1.918-3.21zm-12.042 1.538c0 .659.421.988 1.264.988h1.349v-1.994h-1.307c-.87 0-1.306.335-1.306 1.006zm3.162-1.538v4.455h-.55v-1.474h-1.568l-1.034 1.474h-.652l1.11-1.559c-.345-.096-.61-.26-.797-.49-.186-.232-.28-.526-.28-.882 0-.497.17-.875.509-1.135.339-.26.802-.39 1.39-.39zm-7.037 4.014c.337 0 .626-.078.867-.233.241-.155.421-.379.539-.671v-.727h-1.389c-.757 0-1.136.265-1.136.794 0 .26.098.463.294.613.197.15.472.224.825.224zm.21-4.048c.58 0 1.023.145 1.332.435.31.29.464.72.464 1.289v2.755h-.573v-.693a1.373 1.373 0 0 1-.594.54c-.262.13-.572.195-.932.195-.494 0-.887-.118-1.18-.355a1.147 1.147 0 0 1-.438-.938c0-.377.136-.682.409-.913.272-.23.706-.346 1.302-.346h1.407v-.27c0-.384-.106-.675-.32-.875-.213-.2-.525-.3-.935-.3-.281 0-.55.046-.81.14-.258.092-.48.22-.665.384l-.27-.448a2.39 2.39 0 0 1 .81-.444c.314-.104.645-.156.994-.156zm-7.228.034h.6v1.973h2.797v-1.973h.6v4.455h-.6v-1.965h-2.797v1.965h-.6zm-.87.533h-1.682v3.922h-.6v-3.922h-1.681v-.533h3.963zm-6.608-.052c-.428 0-.787.136-1.078.408-.29.271-.455.625-.494 1.061h3.152c-.04-.436-.204-.79-.494-1.061-.29-.272-.652-.408-1.086-.408zm2.146 1.927h-3.718c.034.462.211.835.532 1.12.322.284.727.427 1.217.427.276 0 .53-.05.76-.148.232-.099.432-.244.6-.436l.339.39a1.903 1.903 0 0 1-.74.54 2.5 2.5 0 0 1-.976.186c-.456 0-.86-.097-1.212-.292a2.102 2.102 0 0 1-.824-.807 2.3 2.3 0 0 1-.296-1.166c0-.434.094-.822.283-1.166a2.05 2.05 0 0 1 .778-.803c.33-.191.7-.287 1.11-.287.412 0 .781.096 1.108.287.327.192.583.458.769.799.186.34.279.73.279 1.17zm-7.179.065h-1.016v1.982h-.602v-4.455h.602v1.956h1.025l1.567-1.956h.653l-1.754 2.16 1.88 2.295h-.711zm-5.226 1.54c.338 0 .628-.077.87-.232.243-.155.423-.379.541-.671v-.727h-1.394c-.76 0-1.14.265-1.14.794 0 .26.098.463.295.613.197.15.473.224.828.224zm.211-4.047c.58 0 1.026.145 1.335.435.31.29.465.72.465 1.289v2.755h-.574v-.693a1.376 1.376 0 0 1-.596.54c-.262.13-.573.195-.934.195-.496 0-.89-.118-1.183-.355a1.146 1.146 0 0 1-.44-.938c0-.377.137-.682.41-.913.274-.23.709-.346 1.306-.346h1.411v-.27c0-.384-.107-.675-.32-.875-.215-.2-.528-.3-.939-.3-.282 0-.552.046-.811.14-.26.092-.482.22-.668.384l-.27-.448c.225-.192.496-.34.811-.444.316-.104.648-.156.997-.156zm-3.236.034v4.455h-.55v-3.524l-1.8 2.982h-.27l-1.8-2.99v3.532h-.549v-4.455h.608l1.885 3.21 1.918-3.21z"/></defs><g><g transform="translate(-155 -32)"><g opacity=".6"><use fill="#dbddf5" xlink:href="#1duna"/></g><g><use fill="#14151e" xlink:href="#1dunb"/></g><g><use fill="#14151e" xlink:href="#1dunc"/></g><g><use fill="#14151e" xlink:href="#1dund"/></g></g></g></svg>