<svg xmlns="http://www.w3.org/2000/svg" xmlns:xlink="http://www.w3.org/1999/xlink" width="40" height="40" viewBox="0 0 40 40"><defs><path id="ejj2a" d="M157 3465c0-11.046 8.954-20 20-20s20 8.954 20 20-8.954 20-20 20-20-8.954-20-20z"/><path id="ejj2d" d="M157 3485v-40h40v40z"/><path id="ejj2b" d="M185 3459.9v12.575c0 1.034-.84 1.875-1.875 1.875h-11.25a1.877 1.877 0 0 1-1.875-1.875v-15c0-1.033.84-1.875 1.875-1.875h8.826zm-12.188 6.94h7.5v-1.865h-7.5zm9.375 1.885h-9.375v1.865h9.375zm1.866-7.5l-4.678-4.688v4.688z"/><path id="ejj2f" d="M165 3477v-24h24v24z"/><clipPath id="ejj2c"><use xlink:href="#ejj2a"/></clipPath><clipPath id="ejj2e"><use xlink:href="#ejj2b"/></clipPath></defs><g><g transform="translate(-157 -3445)"><g><use fill="#5d67e1" xlink:href="#ejj2a"/></g><g clip-path="url(#ejj2c)"><g><use fill="#5d67e1" xlink:href="#ejj2d"/></g></g><g clip-path="url(#ejj2c)"><g><use fill="#757575" xlink:href="#ejj2b"/></g><g clip-path="url(#ejj2e)"><g><use fill="#fff" xlink:href="#ejj2f"/></g></g></g></g></g></svg>