<?xml version="1.0" encoding="UTF-8"?>
<svg width="13px" height="13px" viewBox="0 0 13 13" version="1.1" xmlns="http://www.w3.org/2000/svg" xmlns:xlink="http://www.w3.org/1999/xlink">
    <!-- Generator: Sketch 52.4 (67378) - http://www.bohemiancoding.com/sketch -->
    <title>seach</title>
    <desc>Created with Sketch.</desc>
    <defs>
        <path d="M8,11 C8,9.346 9.346,8 11,8 C12.654,8 14,9.346 14,11 C14,12.654 12.654,14 11,14 C9.346,14 8,12.654 8,11 L8,11 Z M18.414,17 L15.167,13.753 C15.691,12.962 16,12.018 16,11 C16,8.243 13.757,6 11,6 C8.243,6 6,8.243 6,11 C6,13.757 8.243,16 11,16 C12.018,16 12.962,15.691 13.753,15.167 L17,18.414 L18.414,17 Z" id="path-1"></path>
    </defs>
    <g id="Symbols" stroke="none" stroke-width="1" fill="none" fill-rule="evenodd">
        <g id="ic/all/seach" transform="translate(-6.000000, -6.000000)">
            <mask id="mask-2" fill="white">
                <use xlink:href="#path-1"></use>
            </mask>
            <use id="seach" fill="#FFFFFF" xlink:href="#path-1"></use>
        </g>
    </g>
</svg>