<svg xmlns="http://www.w3.org/2000/svg" xmlns:xlink="http://www.w3.org/1999/xlink" width="13" height="14" viewBox="0 0 13 14"><defs><path id="d61ta" d="M1348.771 62.206a2.273 2.273 0 0 1-2.27 2.27 2.274 2.274 0 0 1-2.22-2.749l-3.555-2.052a2.266 2.266 0 0 1-1.655.719 2.275 2.275 0 0 1-2.274-2.27c0-1.254 1.021-2.272 2.271-2.272a2.26 2.26 0 0 1 1.802.892l1.268-.709 2.203-1.272a2.273 2.273 0 0 1 2.154-2.988 2.273 2.273 0 0 1 2.27 2.27c0 1.254-1.02 2.272-2.27 2.272a2.262 2.262 0 0 1-1.543-.608l-3.637 2.1a2.26 2.26 0 0 1-.05.878l3.519 2.031a2.27 2.27 0 0 1 3.987 1.488z"/></defs><g><g transform="translate(-1336 -51)"><use fill="#868a8e" xlink:href="#d61ta"/></g></g></svg>