<?xml version="1.0" encoding="UTF-8"?>
<svg width="32px" height="32px" viewBox="0 0 32 32" version="1.1" xmlns="http://www.w3.org/2000/svg" xmlns:xlink="http://www.w3.org/1999/xlink">
    <!-- Generator: Sketch 52.4 (67378) - http://www.bohemiancoding.com/sketch -->
    <title>Калькулятор</title>
    <desc>Created with Sketch.</desc>
    <g id="Калькулятор" stroke="none" stroke-width="1" fill="none" fill-rule="evenodd">
        <path d="M11.2272727,13.1365545 L11.2272727,11.2274636 L13.1363636,11.2274636 L13.1363636,9.31837273 L11.2272727,9.31837273 L11.2272727,7.40928182 L9.31818182,7.40928182 L9.31818182,9.31837273 L7.40909091,9.31837273 L7.40909091,11.2274636 L9.31818182,11.2274636 L9.31818182,13.1365545 L11.2272727,13.1365545 Z M15.0454545,5.50019091 L15.0454545,15.0456455 L5.5,15.0456455 L5.5,7.40928182 C5.5,6.35641818 6.35622727,5.50019091 7.40909091,5.50019091 L15.0454545,5.50019091 Z M24.5909091,24.5909091 L24.5909091,22.6818182 L18.8636364,22.6818182 L18.8636364,24.5909091 L24.5909091,24.5909091 Z M18.8636364,18.8636364 L18.8636364,20.7727273 L24.5909091,20.7727273 L24.5909091,18.8636364 L18.8636364,18.8636364 Z M16.9545455,26.5 L16.9545455,16.9545455 L26.5,16.9545455 L26.5,24.5909091 C26.5,25.6437727 25.6437727,26.5 24.5909091,26.5 L16.9545455,26.5 Z M12.8566818,22.9615 L11.6224545,21.7272727 L12.8566818,20.4930455 L11.5069545,19.1433182 L10.2727273,20.3785 L9.0385,19.1433182 L7.68877273,20.4930455 L8.923,21.7272727 L7.68877273,22.9615 L9.0385,24.3112273 L10.2727273,23.0779545 L11.5069545,24.3112273 L12.8566818,22.9615 Z M5.5,16.9545455 L15.0454545,16.9545455 L15.0454545,26.5 L7.40909091,26.5 C6.35622727,26.5 5.5,25.6437727 5.5,24.5909091 L5.5,16.9545455 Z M24.5909091,11.2272727 L24.5909091,9.31818182 L18.8636364,9.31818182 L18.8636364,11.2272727 L24.5909091,11.2272727 Z M24.5909091,5.5 C25.6437727,5.5 26.5,6.35622727 26.5,7.40909091 L26.5,15.0454545 L16.9545455,15.0454545 L16.9545455,5.5 L24.5909091,5.5 Z" id="Combined-Shape" fill="#000000"></path>
    </g>
</svg>