<?xml version="1.0" encoding="UTF-8"?>
<svg width="32px" height="32px" viewBox="0 0 32 32" version="1.1" xmlns="http://www.w3.org/2000/svg" xmlns:xlink="http://www.w3.org/1999/xlink">
    <!-- Generator: Sketch 52.4 (67378) - http://www.bohemiancoding.com/sketch -->
    <title>Человек</title>
    <desc>Created with Sketch.</desc>
    <g id="Человек" stroke="none" stroke-width="1" fill="none" fill-rule="evenodd">
        <path d="M16,16 C13.2425,16 11,13.7575 11,11 C11,8.2425 13.2425,6 16,6 C18.7575,6 21,8.2425 21,11 C21,13.7575 18.7575,16 16,16 Z M6,24.75 C6,20.33375 10.1125,17.25 16,17.25 C21.8875,17.25 26,20.33375 26,24.75 L26,24.9910126 C26,25.5487213 25.5559546,26 25.0081969,26 L6.99180311,26 C6.45530558,26 6,25.5482609 6,24.9910126 L6,24.75 Z" id="Combined-Shape" fill="#000000"></path>
    </g>
</svg>