<?xml version="1.0" encoding="UTF-8"?>
<svg width="32px" height="32px" viewBox="0 0 32 32" version="1.1" xmlns="http://www.w3.org/2000/svg" xmlns:xlink="http://www.w3.org/1999/xlink">
    <!-- Generator: Sketch 52.4 (67378) - http://www.bohemiancoding.com/sketch -->
    <title>Информация</title>
    <desc>Created with Sketch.</desc>
    <g id="Информация" stroke="none" stroke-width="1" fill="none" fill-rule="evenodd">
        <path d="M16,26 C10.4771525,26 6,21.5228475 6,16 C6,10.4771525 10.4771525,6 16,6 C21.5228475,6 26,10.4771525 26,16 C26,21.5228475 21.5228475,26 16,26 Z M15.338,17.498 L17.452,17.498 C17.452,17.1993318 17.5313325,16.9450011 17.69,16.735 C17.8486675,16.524999 18.1006649,16.2660015 18.446,15.958 C18.7353348,15.6966654 18.9709991,15.4656677 19.153,15.265 C19.3350009,15.0643323 19.4889994,14.8193348 19.615,14.53 C19.7410006,14.2406652 19.804,13.9046686 19.804,13.522 C19.804,12.7099959 19.4796699,12.0753356 18.831,11.618 C18.1823301,11.1606644 17.3213387,10.932 16.248,10.932 C15.3333288,10.932 14.5423367,11.0953317 13.875,11.422 C13.2076633,11.7486683 12.678002,12.2106637 12.286,12.808 L13.98,13.802 C14.2133345,13.4753317 14.5003316,13.2210009 14.841,13.039 C15.1816684,12.8569991 15.5713311,12.766 16.01,12.766 C16.4673356,12.766 16.8336653,12.8663323 17.109,13.067 C17.3843347,13.2676677 17.522,13.5406649 17.522,13.886 C17.522,14.1286679 17.4496674,14.3456657 17.305,14.537 C17.1603326,14.7283343 16.9340015,14.9639986 16.626,15.244 C16.2059979,15.6266686 15.8863344,15.9766651 15.667,16.294 C15.4476656,16.6113349 15.338,17.0126642 15.338,17.498 Z M16.402,21.012 C16.7846686,21.012 17.104332,20.8883346 17.361,20.641 C17.6176679,20.3936654 17.746,20.0926684 17.746,19.738 C17.746,19.3833316 17.6200013,19.0870012 17.368,18.849 C17.1159987,18.6109988 16.794002,18.492 16.402,18.492 C16.009998,18.492 15.6880013,18.6109988 15.436,18.849 C15.1839987,19.0870012 15.058,19.3833316 15.058,19.738 C15.058,20.0926684 15.186332,20.3936654 15.443,20.641 C15.6996679,20.8883346 16.0193314,21.012 16.402,21.012 Z" id="Combined-Shape" fill="#000000" fill-rule="nonzero"></path>
    </g>
</svg>