<?xml version="1.0" encoding="UTF-8"?>
<svg width="32px" height="32px" viewBox="0 0 32 32" version="1.1" xmlns="http://www.w3.org/2000/svg" xmlns:xlink="http://www.w3.org/1999/xlink">
    <!-- Generator: Sketch 52.4 (67378) - http://www.bohemiancoding.com/sketch -->
    <title>Почта</title>
    <desc>Created with Sketch.</desc>
    <g id="Почта" stroke="none" stroke-width="1" fill="none" fill-rule="evenodd">
        <path d="M15.9995,18.1001 C14.8425,18.1001 13.9005,17.1581 13.9005,16.0001 C13.9005,14.8421 14.8425,13.9001 15.9995,13.9001 C17.1575,13.9001 18.0995,14.8421 18.0995,16.0001 C18.0995,17.1581 17.1575,18.1001 15.9995,18.1001 M15.9995,5.5001 C10.2105,5.5001 5.4995,10.2101 5.4995,16.0001 C5.4995,21.7901 10.2105,26.5001 15.9995,26.5001 C18.1405,26.5001 20.1925,25.8681 21.9355,24.6711 L20.2375,22.1981 C18.9975,23.0501 17.5315,23.5001 15.9995,23.5001 C11.8645,23.5001 8.4995,20.1361 8.4995,16.0001 C8.4995,11.8641 11.8645,8.5001 15.9995,8.5001 C20.1355,8.5001 23.4995,11.8641 23.4995,16.0001 L23.4995,16.7831 C23.4995,17.4241 23.3565,18.5001 22.3995,18.5001 L22.0005,18.5001 C21.7085,18.4891 21.1195,17.9181 21.1005,17.6311 L21.1005,16.0001 L21.0995,16.0001 C21.0995,13.1881 18.8115,10.9001 15.9995,10.9001 C13.1875,10.9001 10.9005,13.1881 10.9005,16.0001 C10.9005,18.8121 13.1875,21.1001 15.9995,21.1001 C17.1705,21.1001 18.2385,20.6871 19.1005,20.0201 C19.8525,20.8861 20.9255,21.5001 21.9995,21.5001 L22.3995,21.5001 C24.8135,21.5001 26.4995,19.5601 26.4995,16.7831 L26.4995,16.0001 C26.4995,10.2101 21.7895,5.5001 15.9995,5.5001" id="Fill-2367" fill="#000000"></path>
    </g>
</svg>